PathFileType	4	(X/Y/Z)	flex.trc
DataRate	CameraRate	NumFrames	NumMarkers	Units	OrigDataRate	OrigDataStartFrame	OrigNumFrames
100.0	100.0	8	17	mm	100.0	1	1352
Frame#	Time	STER			XIPH			T10			T1			CLAV_AC			SCAP_AA			SCAP_CP			SCAP_TS			SCAP_IA			DELT			ARMl			EPICm			EPICl			LARM_elb			STYLr			STYLu			CLAV_SC		
		X1	Y1	Z1	X2	Y2	Z2	X3	Y3	Z3	X4	Y4	Z4	X5	Y5	Z5	X6	Y6	Z6	X7	Y7	Z7	X8	Y8	Z8	X9	Y9	Z9	X10	Y10	Z10	X11	Y11	Z11	X12	Y12	Z12	X13	Y13	Z13	X14	Y14	Z14	X15	Y15	Z15	X16	Y16	Z16	X17	Y17	Z17

1	0.0	392.02850341796875	92.86807250976562	1430.4593505859375	387.97735595703125	136.75112915039062	1268.6939697265625	378.62396240234375	-99.67814636230469	1242.2586669921875	372.2835388183594	-67.40348815917969	1475.9625244140625	577.1201782226562	8.27769660949707	1457.184814453125	581.358154296875	-38.97203063964844	1443.744384765625	524.5346069335938	-43.587764739990234	1473.5517578125	506.677978515625	-101.71086120605469	1422.9346923828125	487.53839111328125	-118.45308685302734	1283.600341796875	649.3685302734375	-23.216777801513672	1310.7962646484375	666.0487670898438	-38.19709396362305	1265.2191162109375	649.9596557617188	-7.350573539733887	1101.6739501953125	725.166259765625	-47.12357711791992	1158.9384765625	672.3970947265625	-49.7068977355957	1097.289794921875	884.385498046875	76.85735321044922	966.8095703125	818.43310546875	55.601287841796875	922.5899658203125	nan	nan	nan
2	0.01	392.058349609375	92.87913513183594	1430.4986572265625	387.99505615234375	136.7425537109375	1268.712646484375	378.6278076171875	-99.67802429199219	1242.2542724609375	372.2782287597656	-67.41043090820312	1475.9771728515625	577.1327514648438	8.2402925491333	1457.1976318359375	581.333984375	-38.969642639160156	1443.7325439453125	524.5477905273438	-43.60421371459961	1473.553466796875	506.684814453125	-101.7292251586914	1422.948974609375	487.5220031738281	-118.46736145019531	1283.5496826171875	649.3905639648438	-23.238672256469727	1310.8590087890625	666.0745849609375	-38.219276428222656	1265.220458984375	649.8588256835938	-7.4491729736328125	1101.620849609375	725.161376953125	-47.12800598144531	1158.9588623046875	672.3905029296875	-49.712890625	1097.3104248046875	884.6888427734375	76.8111801147461	966.9951782226562	818.4522705078125	55.602012634277344	922.6004638671875	nan	nan	nan
3	0.02	392.0897216796875	92.86930084228516	1430.514404296875	388.0286865234375	136.73440551757812	1268.7376708984375	378.67572021484375	-99.68436431884766	1242.256591796875	372.29229736328125	-67.43185424804688	1475.9775390625	577.1597900390625	8.212057113647461	1457.2021484375	581.3961181640625	-39.01877975463867	1443.741943359375	524.5814208984375	-43.618690490722656	1473.5928955078125	506.70391845703125	-101.76394653320312	1422.93505859375	487.5985107421875	-118.48368072509766	1283.5819091796875	649.4402465820312	-23.251169204711914	1310.85595703125	666.0789794921875	-38.22710037231445	1265.2239990234375	650.757080078125	-7.09176778793335	1101.766357421875	725.179931640625	-47.152610778808594	1158.9609375	672.4089965820312	-49.73828887939453	1097.3118896484375	884.706298828125	76.76883697509766	967.045166015625	818.4716186523438	55.55561065673828	922.617919921875	nan	nan	nan
4	0.03	392.1158447265625	92.8553237915039	1430.4998779296875	388.0520324707031	136.72613525390625	1268.739501953125	378.6746520996094	-99.68585205078125	1242.269287109375	372.3158874511719	-67.43138885498047	1475.9783935546875	577.1527099609375	8.192469596862793	1457.22705078125	581.3890380859375	-39.046836853027344	1443.7633056640625	524.5730590820312	-43.64981460571289	1473.5836181640625	506.70867919921875	-101.7850341796875	1422.947265625	487.585693359375	-118.49834442138672	1283.5716552734375	649.3609008789062	-23.278261184692383	1310.8441162109375	666.1007690429688	-38.25257110595703	1265.2266845703125	650.8920288085938	-7.032190799713135	1101.7076416015625	725.1842041015625	-47.15974807739258	1158.9788818359375	672.4136962890625	-49.73945236206055	1097.32861328125	884.4215698242188	76.78800201416016	966.8670043945312	818.4844970703125	55.554927825927734	922.6234741210938	nan	nan	nan
5	0.04	392.0724792480469	92.76915740966797	1430.4898681640625	388.0578308105469	136.71568298339844	1268.738525390625	378.700927734375	-99.7055435180664	1242.2584228515625	372.3551940917969	-67.45272827148438	1475.9691162109375	577.1992797851562	8.137511253356934	1457.2459716796875	581.3970947265625	-39.073055267333984	1443.767333984375	524.5564575195312	-43.69084930419922	1473.570068359375	506.763427734375	-101.79940032958984	1422.93701171875	487.56634521484375	-118.5235595703125	1283.57275390625	649.354736328125	-23.314481735229492	1310.8516845703125	666.1426391601562	-38.27939224243164	1265.261474609375	649.9833374023438	-7.451050758361816	1101.59619140625	725.2034301757812	-47.18914794921875	1158.9796142578125	672.4686279296875	-49.783546447753906	1097.3370361328125	884.74462890625	76.7682876586914	966.9976806640625	818.5104370117188	55.52079391479492	922.607666015625	nan	nan	nan
6	0.05	392.03985595703125	92.68499755859375	1430.463623046875	388.07806396484375	136.70753479003906	1268.7474365234375	378.70721435546875	-99.74156951904297	1242.2554931640625	372.3283996582031	-67.45832061767578	1475.97998046875	577.2083740234375	8.118399620056152	1457.2489013671875	581.3920288085938	-39.106204986572266	1443.7459716796875	524.5850219726562	-43.73047637939453	1473.5892333984375	506.7648620605469	-101.83949279785156	1422.941650390625	487.6860656738281	-118.53355407714844	1283.54833984375	649.4257202148438	-23.34807586669922	1310.8885498046875	666.1068115234375	-38.31666564941406	1265.2484130859375	650.05517578125	-7.398817539215088	1101.6160888671875	725.2303466796875	-47.21854019165039	1158.985595703125	672.4669189453125	-49.79014587402344	1097.3531494140625	884.7599487304688	76.74241638183594	967.0239868164062	818.5446166992188	55.505619049072266	922.5699462890625	nan	nan	nan
7	0.06	392.07354736328125	92.59162139892578	1430.4068603515625	388.1651306152344	136.7254180908203	1268.7574462890625	378.72979736328125	-99.72679138183594	1242.2559814453125	372.3667907714844	-67.47945404052734	1475.964111328125	577.2195434570312	8.06712818145752	1457.260986328125	581.3353881835938	-39.043216705322266	1443.6451416015625	524.5877685546875	-43.75986099243164	1473.582763671875	506.73138427734375	-101.87399291992188	1422.900634765625	487.6221618652344	-118.58798217773438	1283.5859375	649.5357055664062	-23.38179588317871	1310.888671875	666.111083984375	-38.352874755859375	1265.2176513671875	650.0867309570312	-7.464807510375977	1101.6160888671875	725.255126953125	-47.25767135620117	1158.9862060546875	672.5166015625	-49.83778381347656	1097.324951171875	884.5263671875	76.72537994384766	966.8980102539062	818.9432373046875	55.34413146972656	922.4810791015625	nan	nan	nan
8	0.07	392.0838317871094	92.52947998046875	1430.405517578125	388.1441955566406	136.6806640625	1268.7528076171875	378.7267761230469	-99.76824188232422	1242.2369384765625	372.36993408203125	-67.52110290527344	1475.957763671875	577.2141723632812	8.022961616516113	1457.2469482421875	581.3447265625	-39.0674934387207	1443.664306640625	524.5908203125	-43.79890823364258	1473.6058349609375	506.74957275390625	-101.90392303466797	1422.8843994140625	487.6546630859375	-118.58686828613281	1283.5540771484375	649.3710327148438	-23.434715270996094	1310.8809814453125	666.1649780273438	-38.38725662231445	1265.2005615234375	650.2083740234375	-7.479122638702393	1101.71826171875	725.2684936523438	-47.29935836791992	1158.9854736328125	672.5185546875	-49.88307189941406	1097.3231201171875	884.549072265625	76.68327331542969	966.91064453125	818.5869750976562	55.43450164794922	922.5718383789062	nan	nan	nan
